<?xml version="1.0" encoding="UTF-8" standalone="no"?>
<!-- Created with Inkscape (http://www.inkscape.org/) -->

<svg
   width="140"
   height="140"
   viewBox="0 0 37.041667 37.041666"
   version="1.1"
   id="svg5"
   xml:space="preserve"
   sodipodi:docname="edit.svg"
   inkscape:export-filename="edit.svg"
   inkscape:export-xdpi="103.35029"
   inkscape:export-ydpi="103.35029"
   xmlns:inkscape="http://www.inkscape.org/namespaces/inkscape"
   xmlns:sodipodi="http://sodipodi.sourceforge.net/DTD/sodipodi-0.dtd"
   xmlns="http://www.w3.org/2000/svg"
   xmlns:svg="http://www.w3.org/2000/svg"><sodipodi:namedview
     id="namedview13"
     pagecolor="#505050"
     bordercolor="#eeeeee"
     borderopacity="1"
     inkscape:showpageshadow="0"
     inkscape:pageopacity="0"
     inkscape:pagecheckerboard="0"
     inkscape:deskcolor="#505050"
     inkscape:document-units="mm"
     showgrid="false" /><defs
     id="defs2" /><g
     id="layer1"
     style="display:inline"
     transform="translate(-83.340054,-66.946039)"><g
       id="g1900"
       style="display:inline;fill:#000000;fill-opacity:1;stroke-width:5;stroke-dasharray:none"><path
         style="fill:#000000;fill-opacity:1;stroke:#000000;stroke-width:5;stroke-linecap:round;stroke-linejoin:round;stroke-dasharray:none;stroke-opacity:1;paint-order:markers stroke fill"
         d="m 99.610816,69.627207 9.490184,4.346551 -8.22804,15.626686 -7.667932,-3.538707 z"
         id="path302" /><path
         style="fill:#000000;fill-opacity:1;stroke:#000000;stroke-width:5;stroke-linecap:round;stroke-linejoin:round;stroke-dasharray:none;stroke-opacity:1;paint-order:markers stroke fill"
         d="m 92.504267,87.888437 7.730663,3.254205 -7.022292,5.553588 z"
         id="path400" /><rect
         style="fill:#000000;fill-opacity:1;stroke:#000000;stroke-width:5;stroke-linecap:round;stroke-linejoin:round;stroke-dasharray:none;stroke-opacity:1;paint-order:markers stroke fill"
         id="rect1895"
         width="29.407261"
         height="3.282258"
         x="87.157257"
         y="98.024193"
         ry="0" /></g><g
       id="g1908"
       style="display:inline;stroke:none;stroke-width:5;stroke-dasharray:none;stroke-opacity:1"><path
         style="fill:#ffffff;stroke:none;stroke-width:5;stroke-linecap:round;stroke-linejoin:round;stroke-dasharray:none;stroke-opacity:1;paint-order:markers stroke fill"
         d="m 99.610816,69.627207 9.490184,4.346551 -8.22804,15.626686 -7.667932,-3.538707 z"
         id="path1902" /><path
         style="fill:#ffffff;stroke:none;stroke-width:5;stroke-linecap:round;stroke-linejoin:round;stroke-dasharray:none;stroke-opacity:1;paint-order:markers stroke fill"
         d="m 92.504267,87.888437 7.730663,3.254205 -7.022292,5.553588 z"
         id="path1904" /><rect
         style="fill:#ffffff;stroke:none;stroke-width:5;stroke-linecap:round;stroke-linejoin:round;stroke-dasharray:none;stroke-opacity:1;paint-order:markers stroke fill"
         id="rect1906"
         width="29.407261"
         height="3.282258"
         x="87.157257"
         y="98.024193"
         ry="0" /></g></g><path
     id="path4154"
     style="display:none;fill:#ffffff;fill-opacity:1;stroke:#000000;stroke-width:6.32447;stroke-linecap:round;stroke-linejoin:round;stroke-dasharray:none;stroke-opacity:1;paint-order:markers stroke fill"
     d="M 10.269109,5.4686752 5.50855,10.269108 c 2.81949,2.725283 5.635529,5.503219 8.432789,8.304016 -2.74617,2.725049 -5.555049,5.457936 -8.432789,8.199433 l 4.681469,4.800432 c 2.72133,-2.856811 5.46749,-5.680105 8.238,-8.471352 2.77664,2.824277 5.52519,5.657 8.22557,8.471352 l 4.87953,-4.879525 c -2.86838,-2.652782 -5.72274,-5.3779 -8.53672,-8.143218 2.82121,-2.779572 5.66666,-5.526823 8.53672,-8.241265 l -4.80044,-4.8403058 c -2.69019,2.845481 -5.44403,5.6991808 -8.26414,8.5609018 -2.79984,-2.839428 -5.54312,-5.7034838 -8.19943,-8.5609018 z" /></svg>
