<svg width="123" height="123" version="1.1" viewBox="0 0 123 123" xml:space="preserve" xmlns="http://www.w3.org/2000/svg" xmlns:xlink="http://www.w3.org/1999/xlink"><defs><linearGradient id="linearGradient1394" x1="61.5" x2="0" y1="61.5" y2="123" gradientUnits="userSpaceOnUse" spreadMethod="reflect"><stop stop-color="#ededed" offset=".048232"/><stop stop-color="#585858" offset=".33441"/><stop offset=".69132"/></linearGradient><clipPath id="clipPath5433"><path class="powerclip" d="m-0.42788-0.42788h123.86v123.86h-123.86zm123.43 66.102a57.385 57.325 0 0 0-57.385-57.325 57.385 57.325 0 0 0-57.385 57.325 57.385 57.325 0 0 0 57.385 57.325 57.385 57.325 0 0 0 57.385-57.325z" stroke-width="1.1804"/></clipPath></defs><circle cx="61.5" cy="61.5" r="61.5"/><path d="m118.43 61.5a56.928 56.928 0 0 1-56.928 56.928 56.928 56.928 0 0 1-56.928-56.928 56.928 56.928 0 0 1 56.928-56.928 56.928 56.928 0 0 1 56.928 56.928z" clip-path="url(#clipPath5433)" fill="url(#linearGradient1394)" stroke-width=".92566"/><path d="m44.316 70.297c4.32-0.192 20.448-0.288 34.368-0.576 0-2.496 0.096-9.024 0-16.992-4.224 0-19.872-0.192-34.368 0.48 0 2.496-0.096 9.504 0 17.088z" fill="#fff"/></svg>