<svg width="123" height="123" version="1.1" viewBox="0 0 123 123" xml:space="preserve" xmlns="http://www.w3.org/2000/svg" xmlns:xlink="http://www.w3.org/1999/xlink"><defs><linearGradient id="linearGradient1394" x1="61.5" x2="0" y1="61.5" y2="123" gradientUnits="userSpaceOnUse" spreadMethod="reflect"><stop stop-color="#ededed" offset=".048232"/><stop stop-color="#585858" offset=".33441"/><stop offset=".69132"/></linearGradient><clipPath id="clipPath5433"><ellipse cx="65.615" cy="65.675" rx="57.385" ry="57.325" d="M 123,65.674599 A 57.385303,57.325397 0 0 1 65.614693,123 57.385303,57.325397 0 0 1 8.2293892,65.674599 57.385303,57.325397 0 0 1 65.614693,8.3492012 57.385303,57.325397 0 0 1 123,65.674599 Z" display="none" stroke-width="1.1804"/><path class="powerclip" d="m-0.42788-0.42788h123.86v123.86h-123.86zm123.43 66.102a57.385 57.325 0 0 0-57.385-57.325 57.385 57.325 0 0 0-57.385 57.325 57.385 57.325 0 0 0 57.385 57.325 57.385 57.325 0 0 0 57.385-57.325z" stroke-width="1.1804"/></clipPath></defs><circle cx="61.5" cy="61.5" r="61.5"/><path d="m118.43 61.5a56.928 56.928 0 0 1-56.928 56.928 56.928 56.928 0 0 1-56.928-56.928 56.928 56.928 0 0 1 56.928-56.928 56.928 56.928 0 0 1 56.928 56.928z" clip-path="url(#clipPath5433)" fill="url(#linearGradient1394)" stroke-width=".92566"/><text x="29.652483" y="95.772003" fill="#ffffff" font-family="Splatoon1" font-size="12px" style="font-variant-caps:normal;font-variant-east-asian:normal;font-variant-ligatures:normal;font-variant-numeric:normal" xml:space="preserve"><tspan x="29.652483" y="95.772003" font-family="Splatoon1" font-size="96px" style="font-variant-caps:normal;font-variant-east-asian:normal;font-variant-ligatures:normal;font-variant-numeric:normal">+</tspan></text></svg>